# xmcd CD database file
#
# Track frame offsets:
#	150
#	10021
#	26081
#	37984
#	49435
#	62984
#	71182
#	82641
#	94761
#	107117
#	120029
#	130117
#	139838
#	151719
#	163298
#	175240
#	185527
#	196103
#	206058
#	216995
#	231582
#	241054
#	251794
#	263165
#
# Disc length: 3677 seconds
#
# Revision: 2
# Processed by: cddbd v1.5.2PL0 Copyright (c) Steve Scherf et al.
# Submitted via: CDex 1.70beta2
#
DISCID=520e5b18
DTITLE=Zentner , Si - A Thinking Man's Band and Waltz In Jazz Time
DYEAR=1959
DGENRE=Jazz
TTITLE0=Sweetheart Of Sigma Chi (Verner-Stokes)
TTITLE1=Volga Boatman (Trad. Arr. by Finegan)
TTITLE2=Stompin' At The Savoy (Goodman-Sampspn-Webb-Razaf)
TTITLE3=Beautiful Love (Gillespie-Van Alstyner-King-Young)
TTITLE4=Thinkin' Man (Bambridges-Zentner)
TTITLE5=Two Guitars (Zentner-Carpenter)
TTITLE6=Sock Hop (Bambridges-Zentner)
TTITLE7=Bei Mie Bist Du Schon (Secunda)
TTITLE8=Out Of Nowhere (Green-Heyman)
TTITLE9=Why Not (Peter Carpenter)
TTITLE10=Little Girl (Bambridges-Zentner)
TTITLE11=The World Is Waiting For The Sunrise (Lockhart-Seitz)
TTITLE12=The Sweetest Sounds (Richard Rodgers)
TTITLE13=Paradise (Herb Brown-Clifford)
TTITLE14=A La Mode (Zentner-Chase)
TTITLE15=Belle Of The Ball (Leroy Anderson)
TTITLE16=Cassandra (Zentner-Chase)
TTITLE17=Gonna Go Fishin' (Duke Ellington-Peggy Lee)
TTITLE18=Jazz in Waltz Time  (Zentner-Chase)
TTITLE19=Green Fields (Dehr-Gilkynson-Mamoudy-Miller)
TTITLE20=Willow Weep For Me (Ann Ronell)
TTITLE21=Lover (Rodgers-Hart)
TTITLE22=Wild Honeysuckle (Zentner-Chase)
TTITLE23=Magenta (Zentner-Chase)
EXTD=YEAR: 1959
EXTT0=
EXTT1=
EXTT2=
EXTT3=
EXTT4=
EXTT5=
EXTT6=
EXTT7=
EXTT8=
EXTT9=
EXTT10=
EXTT11=
EXTT12=
EXTT13=
EXTT14=
EXTT15=
EXTT16=
EXTT17=
EXTT18=
EXTT19=
EXTT20=
EXTT21=
EXTT22=
EXTT23=
PLAYORDER=
